<?xml version="1.0" encoding="UTF-8" standalone="no"?>

<svg
   xmlns:dc="http://purl.org/dc/elements/1.1/"
   xmlns:cc="http://creativecommons.org/ns#"
   xmlns:rdf="http://www.w3.org/1999/02/22-rdf-syntax-ns#"
   xmlns:svg="http://www.w3.org/2000/svg"
   xmlns="http://www.w3.org/2000/svg"
   version="1.1"
   width="300"
   height="300"
   viewBox="0 0 90 90"
   id="svg3039">
  <metadata
     id="metadata3045">
    <rdf:RDF>
      <cc:Work
         rdf:about="">
        <dc:format>image/svg+xml</dc:format>
        <dc:type
           rdf:resource="http://purl.org/dc/dcmitype/StillImage" />
        <dc:title></dc:title>
      </cc:Work>
    </rdf:RDF>
  </metadata>
  <defs
     id="defs3043" />
  <path
     d="m 45.75,81.373212 c -2.86976,-0.8525 -2.006861,-4.024108 1.687947,-6.204099 4.693661,-2.769327 6.617209,-6.991889 7.543388,-16.559198 C 55.908839,49.02891 56.608184,47 58.983159,47 c 1.428919,0 1.859604,1.090388 2.239335,5.669438 0.381234,4.597186 0.982586,6.110213 3.179593,8 5.033571,4.329695 11.846325,2.058645 14.655779,-4.885544 2.404339,-5.942857 4.945555,-5.929924 4.936557,0.02512 -0.0212,14.030967 -12.49657,24.727517 -29.993182,25.716557 C 50.425559,81.727698 46.7125,81.659135 45.75,81.373212 z m -9.660724,-5.46633 C 33.434139,72.315617 26.900392,69.053533 22.299221,69.021962 16.769671,68.984021 9.344108,66.969242 7.1294063,64.905933 3.8142725,61.817416 4.5079968,60.793264 9.75,61.037123 c 2.6125,0.121533 5.806956,0.162899 7.09879,0.09192 3.172982,-0.17433 8.152165,-5.665232 8.147472,-8.984802 -0.0055,-3.891881 -3.488785,-8.934603 -7.489417,-10.842372 -4.666502,-2.2253 -4.81581,-5.304119 -0.256845,-5.296296 9.607956,0.01649 19.678438,7.646535 23.179032,17.561933 2.292608,6.49379 3.310279,21.836748 1.586184,23.914156 -1.877847,2.262667 -3.384881,1.862182 -5.92594,-1.57478 z M 44.6326,74.214551 c -0.266989,-0.431998 -0.468382,-3.741388 -0.447539,-7.354202 0.02084,-3.612814 -0.285648,-8.096861 -0.68109,-9.964551 C 42.348794,51.439849 36.898029,42.024005 33.31094,39.287999 29.456298,36.34792 29.0136,32.684572 31.500823,24.309182 c 1.685795,-5.676687 7.784486,-13.163906 11.228149,-13.784535 3.381607,-0.6094442 3.548999,0.85129 0.704707,6.149551 -3.407748,6.347849 -2.891848,11.633162 1.520354,15.575802 5.216026,4.660919 10.933339,3.693557 18.30256,-3.096769 3.445424,-3.174765 5.286,-1.900125 4.22589,2.926524 -0.479518,2.18323 -2.834652,5.304419 -7.054286,9.348836 -3.483943,3.339275 -6.805536,7.338204 -7.381319,8.886509 C 52.471095,51.863404 52,56.666378 52,60.988374 c 0,6.995051 -0.284358,8.196116 -2.588894,10.934901 -2.617605,3.110847 -3.893792,3.722774 -4.778506,2.291276 z M 65.706719,59.983945 C 62.382362,57.369005 61.91163,51.294936 64.828741,48.654988 67.344846,46.377943 72.554662,46.554662 75,49 81.26032,55.26032 72.645696,65.442145 65.706719,59.983945 z M 11.399661,58.574739 C 8.1265711,57.147051 7,55.335503 7,51.5 7,47.774091 8.0338372,46.033862 11.228885,44.381639 16.738426,41.532544 23,45.419418 23,51.688561 23,54.837547 20.200027,59 18.081787,59 c -0.505016,0 -1.517516,0.208592 -2.25,0.463537 -0.732483,0.254946 -2.72694,-0.145013 -4.432126,-0.888798 z M 46.248444,30.75 c -3.034989,-3.251488 -3.689973,-6.995497 -1.847212,-10.559004 2.97092,-5.745126 11.295325,-6.317709 14.997854,-1.031608 1.884159,2.690013 2.044559,7.679935 0.319111,9.927269 C 56.391144,33.420024 49.531375,34.267118 46.248444,30.75 z"
     id="path3051"
     style="opacity:0.98999999;fill:#cba385;fill-opacity:1" />
</svg>
